<svg version="1.0" xmlns="http://www.w3.org/2000/svg"
 width="300.000000pt" height="144.000000pt" viewBox="0 0 300.000000 144.000000"
 preserveAspectRatio="xMidYMid meet">

<g transform="translate(0.000000,144.000000) scale(0.100000,-0.100000)"
fill="#000000" stroke="none">
<path d="M0 991 l0 -451 395 0 c333 0 401 -2 432 -15 24 -10 127 -105 283
-259 222 -221 249 -244 292 -254 63 -16 1206 -17 1262 -1 29 8 71 42 171 140
72 71 140 144 150 162 38 71 44 63 -430 537 l-435 435 -127 -128 -128 -127
335 -335 335 -335 -483 0 c-412 0 -488 2 -520 15 -24 10 -120 98 -272 250
-168 167 -248 240 -280 254 -42 19 -65 21 -332 21 l-288 0 0 91 0 91 313 -4
312 -3 69 -33 c59 -28 95 -58 250 -212 l182 -180 127 128 127 127 -187 186
c-229 226 -283 265 -448 320 -69 23 -77 23 -587 27 l-518 3 0 -450z"/>
<path d="M2273 1430 c-13 -5 -32 -24 -43 -42 -64 -102 71 -211 159 -129 26 24
31 37 31 73 -1 81 -71 128 -147 98z m87 -15 c80 -41 59 -157 -31 -171 -51 -8
-99 33 -99 85 0 41 22 78 54 91 31 13 44 12 76 -5z"/>
<path d="M2280 1335 c0 -30 5 -55 10 -55 6 0 10 12 10 26 0 32 30 30 45 -4 17
-39 32 -27 16 13 -5 11 -4 25 1 33 16 19 -10 42 -48 42 l-34 0 0 -55z m65 20
c0 -5 -10 -11 -22 -13 -16 -2 -23 2 -23 13 0 11 7 15 23 13 12 -2 22 -7 22
-13z"/>
</g>
</svg>
