<?xml version="1.0" standalone="no"?>
<!DOCTYPE svg PUBLIC "-//W3C//DTD SVG 20010904//EN" "http://www.w3.org/TR/2001/REC-SVG-20010904/DTD/svg10.dtd">
<svg 
    version="1.0" 
    xmlns="http://www.w3.org/2000/svg"
    width="128pt" 
    height="128pt" 
    viewBox="0 0 130 128"
    preserveAspectRatio="xMidYMid meet"
>

<g transform="translate(0.000000,128.000000) scale(0.100000,-0.100000)"
fill="#ffffff" stroke="none">
<path d="M58 1104 c-57 -30 -58 -37 -58 -464 0 -429 1 -434 60 -465 44 -23
1116 -23 1160 0 59 31 60 36 60 465 0 429 -1 434 -60 465 -43 22 -1121 22
-1162 -1z m1087 -73 c-22 -22 -139 -130 -260 -240 -163 -149 -226 -201 -245
-201 -19 0 -82 52 -245 201 -121 110 -238 218 -260 240 l-40 39 545 0 545 0
-40 -39z m-873 -200 l206 -189 -208 -191 c-115 -105 -211 -191 -215 -191 -3 0
-5 171 -5 380 0 209 3 380 8 380 4 0 100 -85 214 -189z m958 -191 c0 -209 -2
-380 -5 -380 -4 0 -100 86 -215 191 l-208 191 206 189 c114 104 210 189 214
189 5 0 8 -171 8 -380z m-670 -71 c54 -44 106 -44 161 0 34 28 42 31 57 19 60
-46 402 -365 402 -374 0 -2 -243 -4 -540 -4 -297 0 -540 2 -540 4 0 11 405
386 416 386 3 0 23 -14 44 -31z"/>
</g>
</svg>
